<?xml version="1.0" encoding="UTF-8" standalone="no"?>
<!-- Created with Inkscape (http://www.inkscape.org/) -->

<svg
   width="32.210354"
   height="31.046009"
   viewBox="0 0 32.210354 31.046009"
   version="1.1"
   id="svg5"
   xmlns:xlink="http://www.w3.org/1999/xlink"
   xmlns="http://www.w3.org/2000/svg"
   xmlns:svg="http://www.w3.org/2000/svg">
  <defs
     id="defs2">
    <linearGradient
       id="linearGradient5168">
      <stop
         style="stop-color:#fbff00;stop-opacity:1;"
         offset="0"
         id="stop5164" />
      <stop
         style="stop-color:#c88400;stop-opacity:1;"
         offset="1"
         id="stop5166" />
    </linearGradient>
    <linearGradient
       xlink:href="#linearGradient5168"
       id="linearGradient5170"
       x1="363.15125"
       y1="101.57048"
       x2="364.88025"
       y2="311.5126"
       gradientUnits="userSpaceOnUse" />
  </defs>
  <g
     id="layer2"
     transform="translate(-161.29101,-109.81323)">
    <path
       style="fill:#000000;fill-opacity:0.448505;stroke:#000000;stroke-width:14.7679;stroke-dasharray:none;stroke-opacity:0.461794;stop-color:#000000"
       id="path1551"
       d="m 428.47448,345.22883 -63.59423,-33.71624 -63.61002,33.68646 12.41435,-70.9006 -51.6943,-50.08703 71.26673,-10.10275 31.66118,-64.64194 31.63091,64.65676 71.26198,10.13612 -51.71775,50.06282 z"
       transform="matrix(0.13547051,0,0,0.13538812,127.96274,92.279481)" />
    <path
       style="fill:#fbff00;fill-opacity:1;stroke:url(#linearGradient5170);stroke-width:14.7679;stroke-dasharray:none;stroke-opacity:1;stop-color:#000000"
       id="path6588"
       d="m 428.47448,345.22883 -63.59423,-33.71624 -63.61002,33.68646 12.41435,-70.9006 -51.6943,-50.08703 71.26673,-10.10275 31.66118,-64.64194 31.63091,64.65676 71.26198,10.13612 -51.71775,50.06282 z"
       transform="matrix(0.13547051,0,0,0.13538812,127.96274,91.851036)" />
  </g>
</svg>
